/* XPM */
static char * cycle_xpm[] = {
"16 16 20 1",
" 	c None",
".	c #000000",
"+	c #D8D8D8",
"@	c #D5D5D5",
"#	c #CECECE",
"$	c #C6C6C6",
"%	c #FFFFFF",
"&	c #EAEAEA",
"*	c #FF0000",
"=	c #FFE3E3",
"-	c #DBDBDB",
";	c #D89F9F",
">	c #ECD0D0",
",	c #FF3939",
"'	c #FC1919",
")	c #F38181",
"!	c #F63030",
"~	c #4A4A4A",
"{	c #C0C0C0",
"]	c #151515",
"  ............  ",
"  .+@#@@#@$@+.  ",
"  .@%&%%&%*%@.  ",
"  .@%&%%&=*%@.  ",
"  .@&-&&-*;&@.  ",
"  .@%&%%>,@%@.  ",
"  .@%&%%**@%@.  ",
"  .@*>%%'=@%@.  ",
"  .@>*)*!&#&@.  ",
"  .@%>**)%@%@.  ",
"  .@%&=*>%@%@.  ",
"  .@&-&&-&#&@.  ",
"  .@%&%%&%~.~.  ",
"  .@%&%%&%.{.   ",
"  .+@#@@#@].    ",
"  .........     "};
