/* XPM */
static char * cycle_xpm[] = {
"48 48 5 1",
" 	c None",
".	c #000000",
"+	c #FFFFFF",
"@	c #C0C0C0",
"#	c #FF0000",
"       ..................................       ",
"       .++++++++++++++++++++++++++++++++.       ",
"       .++++++++++++++++++++++++++++++++.       ",
"       .++++++++++++++++++++++++++++++++.       ",
"       .++@@@@@@@@@@@@@@@@@@@@@@@@@@@@++.       ",
"       .++@++++++@++++++@++++++@+++++@++.       ",
"       .++@++++++@++++++@++++++@+++++@++.       ",
"       .++@++++++@++++++@++++++@+++++@++.       ",
"       .++@++++++@++++++@++++++@+++++@++.       ",
"       .++@++++++@++++++@+++++#@+++++@++.       ",
"       .++@++++++@++++++@+++++##+++++@++.       ",
"       .++@++++++@++++++@++++###+++++@++.       ",
"       .++@++++++@++++++@++++##@+++++@++.       ",
"       .++@++++++@++++++@+++###@+++++@++.       ",
"       .++@@@@@@@@@@@@@@@@@@##@@@@@@@@++.       ",
"       .++@++++++@++++++@++###+@+++++@++.       ",
"       .++@++++++@++++++@++##++@+++++@++.       ",
"       .++@++++++@++++++@+###++@+++++@++.       ",
"       .++@++++++@++++++@+###++@+++++@++.       ",
"       .++@++++++@++++++@+##+++@+++++@++.       ",
"       .++@++++++@++++++@###+++@+++++@++.       ",
"       .++@++++++@++++++@###+++@+++++@++.       ",
"       .++@++++++@++++++###++++@+++++@++.       ",
"       .++@+++##+@++++++###++++@+++++@++.       ",
"       .++@@@@####@@@@@@###@@@@@@@@@@@++.       ",
"       .++@++++####++++###+++++@+++++@++.       ",
"       .++@+++++#####++###+++++@+++++@++.       ",
"       .++@++++++#########+++++@+++++@++.       ",
"       .++@++++++@#######++++++@+++++@++.       ",
"       .++@++++++@+######++++++@+++++@++.       ",
"       .++@++++++@++#####++++++@+++++@++.       ",
"       .++@++++++@+++###@++++++@+++++@++.       ",
"       .++@++++++@++++++@++++++@+++++@++.       ",
"       .++@@@@@@@@@@@@@@@@@@@@@@@@@@@@++.       ",
"       .++@++++++@++++++@++++++@+++++@++.       ",
"       .++@++++++@++++++@++++++@+++++@++.       ",
"       .++@++++++@++++++@++++++@+++++@++.       ",
"       .++@++++++@++++++@++++++@+++++@++.       ",
"       .++@++++++@++++++@++++++..........       ",
"       .++@++++++@++++++@++++++.@@@@@@@.        ",
"       .++@++++++@++++++@++++++.@@@@@@.         ",
"       .++@++++++@++++++@++++++.@@@@@.          ",
"       .++@++++++@++++++@++++++.@@@@.           ",
"       .++@@@@@@@@@@@@@@@@@@@@@.@@@.            ",
"       .+++++++++++++++++++++++.@@.             ",
"       .+++++++++++++++++++++++.@.              ",
"       .+++++++++++++++++++++++..               ",
"       .........................                "};
